# xmcd
#
# Track frame offsets: 
#        150
#        15688
#        29864
#        43731
#        60781
#        79731
#
# Disc length: 1360 seconds
#
# Revision: 2
# Processed by: cddbd v1.5.2PL0 Copyright (c) Steve Scherf et al.
# Submitted via: ExactAudioCopy v1.0b1
#
DISCID=44054e06
DTITLE=Blake Shelton - All About Tonight
DYEAR=2010
DGENRE=Country
TTITLE0=All About Tonight
TTITLE1=Who Are You When I'm Not Looking
TTITLE2=That Thing We Do
TTITLE3=Draggin' The River
TTITLE4=Suffocating
TTITLE5=Got A Little Country
EXTD=YEAR: 2010
EXTT0=
EXTT1=
EXTT2=
EXTT3=
EXTT4=
EXTT5=
PLAYORDER=
